<svg width="480" height="510" viewBox="0 0 480 510" fill="none" xmlns="http://www.w3.org/2000/svg">
<path d="M253.4 2.9C249.2 1 244.7 0 240 0C235.3 0 230.8 1 226.6 2.9L38.3005 82.8C16.3005 92.1 -0.0995452 113.8 0.000454849 140C0.500455 239.2 41.3005 420.7 213.6 503.2C230.3 511.2 249.7 511.2 266.4 503.2C438.7 420.7 479.5 239.2 480 140C480.1 113.8 463.7 92.1 441.7 82.8L253.4 2.9ZM144 154.4C144 148.6 148.7 144 154.4 144H154.6C158 144 161.1 145.6 163.1 148.3L203.1 201.6C206.1 205.6 210.9 208 215.9 208H263.9C268.9 208 273.7 205.6 276.7 201.6L316.7 148.3C318.7 145.6 321.9 144 325.2 144H325.4C331.2 144 335.8 148.7 335.8 154.4V272C335.8 325 292.8 368 239.8 368C186.8 368 143.8 325 143.8 272V154.4H144ZM200 288C204.244 288 208.314 286.314 211.314 283.314C214.315 280.313 216 276.243 216 272C216 267.757 214.315 263.687 211.314 260.686C208.314 257.686 204.244 256 200 256C195.757 256 191.687 257.686 188.687 260.686C185.686 263.687 184 267.757 184 272C184 276.243 185.686 280.313 188.687 283.314C191.687 286.314 195.757 288 200 288ZM296 272C296 267.757 294.315 263.687 291.314 260.686C288.314 257.686 284.244 256 280 256C275.757 256 271.687 257.686 268.687 260.686C265.686 263.687 264 267.757 264 272C264 276.243 265.686 280.313 268.687 283.314C271.687 286.314 275.757 288 280 288C284.244 288 288.314 286.314 291.314 283.314C294.315 280.313 296 276.243 296 272Z" fill="#FFEEB4"/>
</svg>
