<svg width="512" height="575" viewBox="0 0 512 575" fill="none" xmlns="http://www.w3.org/2000/svg">
<path d="M269.4 35.9C265.2 34 260.7 33 256 33C251.3 33 246.8 34 242.6 35.9L54.3005 115.8C32.3005 125.1 15.9005 146.8 16.0005 173C16.5005 272.2 57.3005 453.7 229.6 536.2C246.3 544.2 265.7 544.2 282.4 536.2C454.7 453.7 495.5 272.2 496 173C496.1 146.8 479.7 125.1 457.7 115.8L269.4 35.9ZM160 187.4C160 181.6 164.7 177 170.4 177H170.6C174 177 177.1 178.6 179.1 181.3L219.1 234.6C222.1 238.6 226.9 241 231.9 241H279.9C284.9 241 289.7 238.6 292.7 234.6L332.7 181.3C334.7 178.6 337.9 177 341.2 177H341.4C347.2 177 351.8 181.7 351.8 187.4V305C351.8 358 308.8 401 255.8 401C202.8 401 159.8 358 159.8 305V187.4H160ZM216 321C220.244 321 224.314 319.314 227.314 316.314C230.315 313.313 232 309.243 232 305C232 300.757 230.315 296.687 227.314 293.686C224.314 290.686 220.244 289 216 289C211.757 289 207.687 290.686 204.687 293.686C201.686 296.687 200 300.757 200 305C200 309.243 201.686 313.313 204.687 316.314C207.687 319.314 211.757 321 216 321ZM312 305C312 300.757 310.315 296.687 307.314 293.686C304.314 290.686 300.244 289 296 289C291.757 289 287.687 290.686 284.687 293.686C281.686 296.687 280 300.757 280 305C280 309.243 281.686 313.313 284.687 316.314C287.687 319.314 291.757 321 296 321C300.244 321 304.314 319.314 307.314 316.314C310.315 313.313 312 309.243 312 305Z" fill="#FFD493"/>
</svg>
